<?xml version="1.0" encoding="UTF-8"?>
<svg id="Layer_1" xmlns="http://www.w3.org/2000/svg" viewBox="0 0 160 160">
  <defs>
    <style>
      .cls-1 {
        fill: #122215;
      }

      .cls-2 {
        fill: #f2ece3;
      }

      .cls-3 {
        fill: #99c83d;
      }
    </style>
  </defs>
  <circle class="cls-1" cx="80" cy="80" r="80"/>
  <path class="cls-3" d="M131.5,59.95c-.09-.36-.14-.73-.22-1.1-.54-1.28-.82-2.62-.82-4.05l.27-2.01c-.12,0-.23,0-.35,0-1.61,0-3.22-.11-4.83-.07-1.91.04-2.48-.55-1.63-2.44,1.1-2.43,2-4.96,2.95-7.45.68-1.79,1.23-3.6,1.31-5.55.08-1.77-.7-2.85-2.34-3.51-4.58-1.85-8.83-.41-11.27,4.1-2.11,3.9-4.04,7.89-5.96,11.88-.58,1.21-1.32,1.94-2.68,2.18-5.14.91-10.3,1.54-15.52.86-2.75-.36-4.62.58-5.09,2.69-.48,2.17.92,4.2,3.42,4.97,2.1.65,4.25.56,6.38.3,2.29-.27,4.59-.26,6.89-.21,1.54.03,2.36.34,1.79,2.32-3.31,11.43-6.55,22.89-9.66,34.38-1.63,6.03-3.3,12.1-2.41,18.48.82,5.85,3.89,9.03,9.03,9.19,3.14.1,5.89-1,8.1-3.21.66-.66,1.3-1.36,1.94-2.08.55-4.87-.72-7.14-3.51-3.95-.69.8-1.35,1.79-2.75,1.96.18-4.76.85-9.28,2.14-13.69,3.94-13.48,8.13-26.88,12.47-40.24,1.26-3.87,1.28-3.78,5.39-3.76,2.32.01,4.63.01,6.95.02,0,0,0-.02,0-.02Z"/>
  <path class="cls-3" d="M143.93,59c-.84-.95-1.61-1.57-2.38-2.13-1.61-1.19-2.41-1.78-2.55-1.87-.52-.33-2.33-1.4-6-2-5.93-.96-13.42-.15-14.74,0,.01.05.03.11.05.16.09.42.14.85.24,1.27.49,1.84.49,3.68,0,5.53,0,.02-.02.04-.03.06,3.67,0,7.33,0,11,.01,3.55,0,7.02.44,10.22,2.19.65.35,1.45.49,2.2.57,1.02.1,2.04-.06,2.6-1.07.58-1.04.06-1.97-.61-2.71Z"/>
  <path class="cls-2" d="M41,77.17c0,2.79,0,5.29,0,7.79,0,11.7-.04,23.4.04,35.1.01,1.92-.55,2.53-2.46,2.43-2.83-.15-5.68-.15-8.51,0-1.91.1-2.48-.51-2.46-2.43.08-11.77.04-23.55.04-35.33,0-9.48.04-18.96-.03-28.44-.01-1.67.4-2.31,2.17-2.25,3.68.13,7.36.09,11.04.01,1.47-.03,2.35.47,3.14,1.76,8.5,13.83,17.07,27.63,25.9,41.88.06-1.08.12-1.7.12-2.33,0-12.85.04-25.69-.03-38.54-.01-2.06.53-2.91,2.72-2.79,2.98.16,5.98.09,8.97.02,1.59-.04,2.17.57,2.17,2.15-.03,21.49-.03,42.97,0,64.46,0,1.46-.57,1.82-1.91,1.8-3.22-.07-6.45-.12-9.66.02-1.55.07-2.37-.58-3.12-1.76-9.16-14.41-18.35-28.81-27.54-43.21-.04-.06-.13-.08-.58-.35Z"/>
</svg>