<?xml version="1.0" encoding="UTF-8"?>
<svg id="Layer_1" xmlns="http://www.w3.org/2000/svg" viewBox="0 0 789.59 602.17">
  <defs>
    <style>
      .cls-1 {
        fill: #f1f6f7;
      }

      .cls-2 {
        fill: #2f3030;
      }

      .cls-3 {
        fill: #fdfefe;
      }
    </style>
  </defs>
  <path class="cls-2" d="M77.89,505.63c-17.27-.17-20.68-3.57-20.69-20.65-.03-102.83-.09-205.65.13-308.48.02-8.67-1.41-13.15-11.07-16.45C10.28,147.76-8.2,109.91,3.5,75.55,15.22,41.11,53.22,21.51,88.39,31.78c35,10.21,56.2,46.19,47.1,81.39-6.07,23.47-21.5,39.36-44.26,47.29-6.24,2.17-7.65,4.91-7.63,10.83.19,47.72.23,95.45-.04,143.17-.04,6.76,1.78,8.83,8.65,8.7,21.69-.43,43.41-.73,65.08.1,9.94.38,12.06-2.6,12.02-12.2-.38-98.05-.01-196.11-.5-294.16C168.75,4.24,171.34-.03,185.1,0c197.01.49,394.02.43,591.03.07,10.73-.02,13.49,2.37,13.47,13.3-.37,191.77-.36,383.53,0,575.3.02,10.75-2.49,13.5-13.38,13.48-198.31-.36-396.62-.36-594.93.01-10.79.02-12.92-3.4-12.36-13.07.78-13.4-.23-26.91.36-40.33.33-7.54-2.25-9.42-9.48-9.3-23.86.42-47.74-.28-71.59.38-8.82.24-11.2-2.58-10.45-10.87.7-7.73.15-15.57.15-23.36ZM584.55,229.54c0,70.27.28,140.55-.28,210.82-.09,11.14,3.12,13.43,13.7,13.33,58.13-.54,116.27-.4,174.41-.09,8.18.04,11.99-.65,11.96-10.72-.38-142.28-.34-284.56-.07-426.84.02-8.57-2.32-10.69-10.74-10.64-59,.36-118.01.41-177.01-.07-9.64-.08-12.32,2.2-12.26,12.1.47,70.7.25,141.41.29,212.12ZM174.34,229.7c0,70.28.16,140.57-.19,210.85-.05,9.37,1.2,13.3,12.23,13.18,58.57-.64,117.16-.58,175.74-.02,10.05.1,12.13-2.76,12.11-12.27-.29-141.44-.31-282.87.07-424.31.03-10.31-3.36-11.83-12.55-11.77-58.58.41-117.16.49-175.74-.05-10.02-.09-11.98,2.77-11.93,12.24.41,70.72.23,141.43.26,212.15ZM479.38,458.67c-97.66,0-195.32.12-292.98-.2-9.19-.03-12.59,1.43-12.39,11.74.72,38.61.55,77.24.11,115.86-.1,8.42,2.06,10.78,10.65,10.77,196.19-.25,392.37-.27,588.56.05,9.73.02,11.05-3.3,10.95-11.81-.44-38.18-.55-76.38.06-114.56.15-9.66-2.15-12.14-11.99-12.09-97.66.42-195.32.25-292.98.25ZM578.79,230.19c0-71.14-.18-142.29.22-213.43.05-9.09-2.23-11.5-11.37-11.43-58.57.43-117.15.46-175.72-.02-9.66-.08-12.12,2.23-12.1,12.02.35,141.42.34,282.84-.02,424.25-.02,9.7,2.24,12.19,12.03,12.1,58.14-.5,116.28-.51,174.41,0,10.11.09,12.88-2.39,12.81-12.67-.48-70.27-.25-140.55-.27-210.82ZM169.1,432.63h.04c0-31.24-.21-62.48.16-93.71.09-7.55-1.31-10.69-9.85-10.44-22.11.65-44.26.49-66.38.06-7.1-.14-9.55,1.49-9.51,9.12.29,62.47.27,124.95-.09,187.42-.05,7.84,2.73,9.12,9.65,8.99,21.69-.4,43.41-.68,65.08.1,9.61.34,11.27-3.04,11.12-11.74-.53-29.92-.2-59.86-.2-89.8ZM77.8,331.12h-.05c0-52.05-.08-104.1.1-156.14.02-6.83.03-11.66-9.29-10.62-9.49,1.06-5.22,7.82-5.23,11.73-.27,102.79-.21,205.59-.2,308.39,0,2.6-.21,5.24.13,7.8.58,4.38,3.28,7.35,7.72,7.11,3.77-.2,6.18-3.07,6.56-6.93.34-3.44.26-6.93.26-10.4.01-50.31,0-100.63,0-150.94ZM77.84,148.44c21.73.7,46.89-24.07,46.5-45.77-.04-2.15.24-4.75-2.35-5.33-3.63-.82-4.06,2.25-4.38,4.76-2.97,23.87-16.79,36.69-40.29,39.82-2.39.32-5.59.66-4.82,4.32.58,2.72,3.19,2.29,5.33,2.2Z"/>
  <path class="cls-3" d="M584.53,229.54c-.02-70.71.2-141.41-.27-212.12-.07-9.9,2.62-12.18,12.26-12.1,59,.48,118.01.43,177.01.07,8.42-.05,10.76,2.07,10.74,10.64-.27,142.28-.32,284.56.07,426.84.03,10.08-3.78,10.77-11.96,10.72-58.14-.3-116.28-.44-174.41.09-10.58.1-13.79-2.19-13.7-13.33.56-70.27.28-140.54.27-210.82ZM706.5,225.61c0-11.7.12-23.41-.06-35.11-.07-4.98,1.26-11.14-5.62-12.9-6.89-1.76-10.06,3.29-12.99,8.33-15.43,26.53-31.02,52.97-46.26,79.61-5.87,10.25-2.82,15.52,8.84,15.88,10.4.32,20.85.66,31.2-.1,9.67-.71,14.64,1.55,12.97,12.44-.68,4.44-1.11,10.91,5.6,11.08,7.97.19,5.99-6.8,6.24-11.67.29-5.7-1.83-12.64,8.12-12.14,2.63.13,4.46-2.29,4.61-5.35.15-3-1.12-5.78-3.94-5.76-11.43.09-8.57-8.03-8.65-14.39-.12-9.97-.03-19.94-.06-29.91Z"/>
  <path class="cls-3" d="M174.33,229.7c-.02-70.72.17-141.44-.24-212.15-.06-9.47,1.9-12.33,11.93-12.24,58.58.54,117.16.46,175.74.05,9.2-.06,12.58,1.46,12.55,11.77-.38,141.44-.36,282.87-.07,424.31.02,9.51-2.06,12.37-12.11,12.27-58.58-.56-117.16-.62-175.74.02-11.03.12-12.28-3.81-12.23-13.18.34-70.28.19-140.57.17-210.85ZM291.64,225.9s-.05,0-.08,0c0-12.11.02-24.23,0-36.34-.01-4.83.03-10.04-5.6-11.86-6.09-1.97-9.86,2.02-12.59,6.69-15.89,27.2-31.86,54.37-47.36,81.8-5.36,9.48-2.05,14.88,8.69,15.24,10.81.36,21.7.83,32.43-.12,9.91-.88,13.13,2.41,11.86,12.07-.64,4.87-1.23,11.87,6.47,11.47,7.24-.37,6.12-7.11,6.09-12.16-.04-6.04-.79-11.08,8.31-12.2,5.63-.69,6.22-9.22.55-10.04-11.82-1.71-8.57-9.38-8.71-15.99-.2-9.51-.05-19.04-.05-28.55Z"/>
  <path class="cls-3" d="M578.8,230.19c0,70.28-.22,140.55.26,210.82.07,10.28-2.7,12.76-12.81,12.67-58.14-.51-116.28-.5-174.41,0-9.78.08-12.05-2.4-12.03-12.1.35-141.42.36-282.84.02-424.25-.02-9.8,2.44-12.1,12.1-12.02,58.57.49,117.15.46,175.72.02,9.14-.07,11.42,2.34,11.37,11.43-.4,71.14-.22,142.28-.21,213.43ZM518.62,243.07c0-10.38.95-20.86-.2-31.11-2.25-19.95-17.29-33.9-35.86-34.7-19.35-.84-35.86,10.93-39.38,30.49-4.17,23.1-3.94,46.64.22,69.75,3.3,18.33,17.72,29.66,35.48,30.26,18.76.63,31.4-8.74,37.61-27.36,4.09-12.26,2.37-24.86,2.13-37.33Z"/>
  <path class="cls-3" d="M169.1,432.63c0,29.93-.33,59.87.2,89.8.15,8.7-1.51,12.08-11.12,11.74-21.67-.78-43.39-.49-65.08-.1-6.92.13-9.7-1.15-9.65-8.99.36-62.47.38-124.94.09-187.42-.04-7.63,2.41-9.26,9.51-9.12,22.12.43,44.27.59,66.38-.06,8.54-.25,9.94,2.89,9.85,10.44-.37,31.23-.16,62.47-.16,93.71h-.04Z"/>
  <path class="cls-1" d="M77.8,331.12c0,50.31,0,100.63,0,150.94,0,3.47.08,6.96-.26,10.4-.38,3.85-2.79,6.72-6.56,6.93-4.44.24-7.14-2.73-7.72-7.11-.34-2.56-.13-5.2-.13-7.8,0-102.8-.06-205.59.2-308.39.01-3.92-4.26-10.68,5.23-11.73,9.33-1.04,9.32,3.79,9.29,10.62-.18,52.05-.1,104.1-.1,156.14h.05Z"/>
  <path class="cls-1" d="M77.84,148.44c-2.14.09-4.75.52-5.33-2.2-.78-3.66,2.42-4,4.82-4.32,23.5-3.12,37.32-15.94,40.29-39.82.31-2.51.75-5.58,4.38-4.76,2.58.58,2.31,3.18,2.35,5.33.39,21.69-24.77,46.46-46.5,45.76Z"/>
  <path class="cls-2" d="M706.52,225.61c.02,9.97-.07,19.94.05,29.91.07,6.37-2.78,14.49,8.65,14.39,2.82-.02,4.08,2.76,3.94,5.76-.15,3.06-1.98,5.48-4.61,5.35-9.95-.5-7.82,6.44-8.12,12.14-.25,4.86,1.73,11.86-6.24,11.67-6.71-.16-6.28-6.63-5.6-11.08,1.67-10.88-3.3-13.15-12.97-12.44-10.35.76-20.81.43-31.2.1-11.66-.36-14.7-5.62-8.84-15.88,15.24-26.64,30.84-53.07,46.26-79.61,2.93-5.04,6.1-10.09,12.99-8.33,6.88,1.75,5.54,7.92,5.62,12.9.17,11.7.06,23.41.07,35.11ZM653.4,269.12c12.94,0,24.03,0,35.12,0,3.29,0,5.97-.64,5.97-4.84-.04-21.04-.02-42.09-.02-63.13-.81-.11-1.62-.21-2.43-.32-12.59,22.25-25.18,44.5-38.63,68.29Z"/>
  <path class="cls-2" d="M291.64,225.9c0,9.52-.15,19.04.05,28.55.14,6.6-3.11,14.27,8.71,15.99,5.67.82,5.08,9.35-.55,10.04-9.1,1.12-8.35,6.16-8.31,12.2.03,5.05,1.15,11.79-6.09,12.16-7.69.39-7.1-6.61-6.47-11.47,1.26-9.66-1.96-12.95-11.86-12.07-10.73.95-21.63.48-32.43.12-10.74-.36-14.05-5.76-8.69-15.24,15.5-27.43,31.46-54.59,47.36-81.8,2.73-4.67,6.5-8.65,12.59-6.69,5.63,1.82,5.59,7.03,5.6,11.86.03,12.11,0,24.23,0,36.34.03,0,.05,0,.08,0ZM278.78,201.39l-2.15-.34c-12.46,22.02-24.93,44.04-38.46,67.96,12.43,0,22.69-.36,32.91.13,6.49.31,7.92-2.24,7.82-8.22-.32-19.84-.12-39.69-.12-59.54Z"/>
  <path class="cls-1" d="M784.34,470.52c.15-9.66-2.15-12.14-11.99-12.09-97.66.42-195.32.25-292.98.25-97.66,0-195.32.12-292.98-.21-9.19-.03-12.59,1.43-12.39,11.74.72,38.61.55,77.24.11,115.86-.1,8.42,2.06,10.78,10.65,10.77,196.19-.25,392.37-.27,588.56.05,9.73.02,11.05-3.3,10.95-11.81-.44-38.18-.55-76.38.06-114.56ZM478.12,531.62c.36,2.35.56,4.79,1.66,6.75-1.1-1.96-1.3-4.39-1.66-6.75ZM484.45,541.83l.17.18c-.08-.08-.17-.18-.17-.18h0Z"/>
  <path class="cls-2" d="M518.62,243.07c.24,12.47,1.96,25.07-2.13,37.33-6.21,18.62-18.85,27.99-37.61,27.36-17.76-.6-32.17-11.93-35.48-30.26-4.16-23.1-4.39-46.65-.22-69.75,3.53-19.55,20.03-31.32,39.38-30.49,18.57.8,33.61,14.75,35.86,34.7,1.15,10.25.2,20.73.2,31.11ZM453.69,241.95c0,12.1-.89,24.3,2.76,36.09,3.64,11.77,11.84,17.88,24.11,17.81,12.26-.07,21.33-6.1,23.74-18.09,4.63-23.07,4.95-46.52.04-69.58-2.48-11.64-10.97-18.5-23.44-18.65-13.02-.16-20.92,6.94-24.67,18.94-3.41,10.93-2.62,22.25-2.55,33.48Z"/>
  <path class="cls-3" d="M653.4,269.12c13.46-23.79,26.05-46.04,38.63-68.29.81.11,1.62.21,2.43.32,0,21.04-.02,42.09.02,63.13,0,4.2-2.68,4.84-5.97,4.84-11.09,0-22.18,0-35.12,0Z"/>
  <path class="cls-3" d="M278.78,201.39c0,19.85-.2,39.69.12,59.54.1,5.97-1.33,8.53-7.82,8.22-10.22-.49-20.48-.13-32.91-.13,13.54-23.92,26-45.94,38.46-67.96l2.15.34Z"/>
  <path class="cls-3" d="M453.69,241.95c-.08-11.23-.87-22.56,2.54-33.49,3.75-12,11.64-19.1,24.67-18.94,12.47.15,20.96,7.02,23.44,18.65,4.91,23.05,4.6,46.51-.04,69.58-2.41,11.99-11.48,18.02-23.74,18.09-12.27.07-20.47-6.04-24.11-17.81-3.65-11.79-2.76-23.99-2.76-36.08Z"/>
  <path class="cls-2" d="M430.63,532.54v-10.24c.46-.12.28-.53.33-.81.45-2.56.64-5.17,1.57-7.66.85-2.27,1.53-4.62,2.63-6.79,7.94-15.77,20.54-25.23,38.06-27.99.43-.07.99.15,1.29-.39h9.75c1.26.59,2.65.5,3.97.73,19.45,3.34,35.68,19.21,39.48,38.6.31,1.6.31,3.26.92,4.8v9.51c-.39.11-.25.45-.3.71-.31,1.76-.55,3.53-.93,5.27-3.95,18.33-19.78,33.62-38.2,36.98-1.73.32-3.5.38-5.18.92h-9.51c-.09-.41-.44-.28-.69-.32-1.36-.23-2.73-.4-4.08-.68-19.44-3.95-35.71-20.03-38.65-40.99-.08-.56.07-1.2-.46-1.65ZM510.17,496.4c-.33-.5-.77-.88-1.28-1.18-.38-.36-.73-.75-1.13-1.09-16.08-13.29-37.97-13.8-54.67-1.28-13.88,10.41-20.31,28.59-15.97,45.16,6.51,24.88,32.34,38.83,56.72,30.62,5.76-1.94,10.91-4.94,15.34-9.13.97-.77,1.85-1.62,2.6-2.6.18-.16.38-.3.53-.48,10.14-11.83,13.45-25.31,9.57-40.41-1.78-6.92-5.26-12.97-10.25-18.12-.4-.59-.9-1.08-1.47-1.5v.02Z"/>
  <path class="cls-2" d="M450.61,524.73c-2.1.09-3.27-.83-3.38-2.39-.1-1.45.98-2.59,2.63-2.74,6.5-.6,11.99-3.22,16.34-8.14,1-1.14,1.98-1.39,3.13-.93,1.06.43,1.57,1.25,1.63,2.35.05.88-.44,1.54-.99,2.15-4.71,5.23-10.55,8.37-17.5,9.46-.72.11-1.45.19-1.86.24Z"/>
  <path class="cls-2" d="M508.37,524.71c-7.35-.72-13.98-3.9-19.22-9.85-1.15-1.31-1.12-2.9,0-3.9,1.13-1.01,2.71-.83,3.86.47,4.32,4.87,9.75,7.54,16.21,8.15,1.77.17,2.88,1.23,2.8,2.72-.09,1.57-1.33,2.53-3.65,2.42Z"/>
  <path class="cls-2" d="M496.99,540.84c-3.65-.05-6.85-1.06-9.75-3.02-1.55-1.05-1.94-2.54-1.04-3.83.91-1.31,2.35-1.47,3.95-.46,4.54,2.87,9.07,2.86,13.6-.02,1.36-.86,2.37-.9,3.36-.12,1.43,1.12,1.33,3.11-.24,4.24-2.99,2.15-6.35,3.17-9.89,3.2Z"/>
  <path class="cls-2" d="M462.41,540.84c-3.67-.03-6.94-1.08-9.9-3.11-1.45-1-1.79-2.5-.9-3.77.86-1.23,2.34-1.45,3.76-.53,4.64,2.99,9.27,3.02,13.9,0,1.47-.96,2.95-.7,3.82.63.82,1.26.47,2.69-.94,3.67-2.95,2.05-6.23,3.07-9.74,3.11Z"/>
  <path class="cls-2" d="M479.75,553.26c2.52,0,5.04,0,7.55,0,1.79,0,3,1.09,2.98,2.65-.02,1.49-1.2,2.5-2.98,2.5-5.08,0-10.15.01-15.23,0-1.91,0-3.06-.95-3.09-2.52-.04-1.61,1.16-2.64,3.1-2.64,2.56,0,5.12,0,7.68,0Z"/>
</svg>