<?xml version="1.0" encoding="UTF-8"?>
<svg id="Layer_1" xmlns="http://www.w3.org/2000/svg" viewBox="0 0 1365.96 381.18">
  <defs>
    <style>
      .cls-1 {
        fill: #fbfcfb;
      }

      .cls-2 {
        fill: #453138;
      }

      .cls-3 {
        fill: #e8455f;
      }

      .cls-4 {
        fill: #29974f;
      }

      .cls-5 {
        fill: #7ebc47;
      }

      .cls-6 {
        fill: #7dbb48;
      }

      .cls-7 {
        fill: #122215;
      }

      .cls-8 {
        fill: #d2c13f;
      }

      .cls-9 {
        fill: #f2ece1;
      }

      .cls-10 {
        fill: #363e2c;
      }

      .cls-11 {
        fill: #99c83d;
      }

      .cls-12 {
        fill: #e7d23e;
      }

      .cls-13 {
        fill: #e8d344;
      }

      .cls-14 {
        fill: #754f31;
      }

      .cls-15 {
        fill: #d1c348;
      }

      .cls-16 {
        fill: #e52b7c;
      }
    </style>
  </defs>
  <path class="cls-11" d="M829.79,300.75c-4.84,5.42-8.73,10.17-13.04,14.5-5.38,5.4-12.11,8.1-19.79,7.85-12.57-.4-20.07-8.16-22.07-22.46-2.18-15.6,1.89-30.43,5.88-45.17,7.6-28.08,15.51-56.08,23.6-84.02,1.41-4.85-.62-5.6-4.37-5.68-5.62-.12-11.23-.15-16.84.52-5.22.62-10.47.84-15.6-.74-6.11-1.88-9.52-6.85-8.35-12.14,1.14-5.15,5.72-7.45,12.44-6.58,12.76,1.66,25.37.13,37.94-2.09,3.32-.59,5.13-2.38,6.55-5.33,4.7-9.75,9.42-19.51,14.56-29.03,5.96-11.01,16.35-14.52,27.53-10.01,3.99,1.61,5.89,4.24,5.71,8.58-.2,4.74-1.55,9.19-3.21,13.55-2.32,6.1-4.53,12.27-7.21,18.21-2.08,4.61-.66,6.07,3.99,5.96,3.93-.09,7.86.16,11.8.17,27.91.08,55.82.03,83.68,1.96,8.77.61,16.91,3.17,24.25,7.97,2.16,1.41,4.08,3.28,5.81,5.21,1.63,1.83,2.91,4.08,1.48,6.63-1.38,2.46-3.87,2.86-6.36,2.61-1.83-.18-3.79-.52-5.37-1.38-7.82-4.26-16.29-5.32-24.97-5.34-30.92-.07-61.83-.03-92.75-.17-10.04-.05-10.1-.26-13.18,9.2-10.6,32.64-20.84,65.4-30.48,98.34-3.16,10.79-4.81,21.82-5.24,33.46,3.41-.41,5.02-2.85,6.72-4.79,8.48-9.72,16.78-19.6,25.21-29.37,1.81-2.1,2.23-4.69,3.03-7.15,5.96-18.27,11.81-36.59,19.73-54.13,5.33-11.81,13.9-15.61,26-12.03,7.95,2.35,10.07,5.03,10.24,13.47,8.14-4.06,16.07-8.18,25.09-9.27,11.01-1.33,21.36-.02,30.02,7.61,6.73,5.92,9.23,13.24,7.24,22.17-3.5,15.79-17.91,28.16-31.89,26.94-2.39-.21-4.83-.77-7.08-1.6-6.04-2.23-7.01-6.11-2.94-11.1,5.61-6.88,5.72-15.17,5.92-23.37.08-3.14-2.11-2.25-3.93-1.39-6.82,3.21-12.61,7.99-18.84,12.11-11.93,7.86-19.37,18.36-23.65,32.01-5.08,16.17-11.34,31.99-17.59,47.76-4.42,11.15-18.84,14.56-28.61,7.4-3.63-2.66-3.77-6.18-3-10.03.58-2.88,2.1-5.56,1.91-9.8l.03-.02Z"/>
  <path class="cls-7" d="M301.41,206.37v19.05c0,28.59-.1,57.18.1,85.77.03,4.69-1.34,6.19-6.01,5.94-6.92-.36-13.88-.36-20.79,0-4.66.24-6.05-1.24-6.02-5.94.2-28.78.1-57.55.1-86.33,0-23.17.09-46.34-.08-69.51-.03-4.07.98-5.64,5.31-5.49,8.99.31,17.99.22,26.98.03,3.6-.07,5.74,1.15,7.67,4.29,20.77,33.81,41.71,67.51,63.29,102.36.14-2.65.29-4.16.29-5.68.01-31.39.1-62.79-.08-94.18-.03-5.04,1.29-7.12,6.64-6.83,7.29.4,14.62.23,21.92.05,3.87-.09,5.3,1.39,5.29,5.26-.07,52.51-.08,105.02.01,157.53,0,3.56-1.39,4.46-4.66,4.39-7.87-.16-15.75-.29-23.61.05-3.78.17-5.79-1.42-7.63-4.31-22.4-35.23-44.85-70.42-67.3-105.61-.09-.14-.31-.19-1.42-.85h0Z"/>
  <path class="cls-7" d="M533.07,221.45c0-18.69.11-37.38-.09-56.06-.04-4.12,1.06-5.65,5.35-5.45,6.92.32,13.88.39,20.79-.02,4.74-.28,5.68,1.67,5.53,5.85-.27,7.47.21,14.96-.18,22.42-.24,4.66,1.57,5.6,5.82,5.56,19.11-.19,38.23.06,57.35-.19,4.57-.06,5.94,1.42,5.61,5.76-.33,4.27-.3,8.61,0,12.88.27,3.98-1.26,5.1-5.14,5.07-19.12-.16-38.24.1-57.35-.19-4.96-.07-6.42,1.28-6.3,6.26.34,14.01.01,28.03.18,42.04.05,4.25.53,8.55,1.41,12.71,2.05,9.72,9.89,15.05,20.32,14.23,9.44-.74,16.12-8.43,16.38-19.42.24-10.46.25-20.93-.03-31.39-.11-4.28,1.34-5.51,5.48-5.33,6.92.3,13.87.1,20.8.08,2.19,0,4.28.05,4.17,3.08-.56,14.9,1.49,29.89-1.09,44.7-3.44,19.76-20.14,34.99-40.06,36.21-10.97.68-21.94.64-32.51-3.9-14.07-6.05-22.08-16.6-25.27-31.14-2.46-11.25-.84-22.69-1.12-34.05-.25-9.9-.05-19.81-.05-29.71h0Z"/>
  <path class="cls-7" d="M493.72,302.52c-5.75,5.73-11.18,11.3-18.63,14.25-25.65,10.16-55.46,1.09-61.35-31.28-.68-3.71-1-7.35-1-11.08.01-25.04.11-50.09-.09-75.13-.03-4.39,1.16-5.94,5.67-5.7,6.92.36,13.88.39,20.79,0,4.87-.28,6.43,1.1,6.37,6.17-.28,23.36-.12,46.72-.13,70.08,0,4.32.61,8.58,2.33,12.51,3.16,7.2,9.03,10.89,16.76,11.05,9.16.19,17.51-2.05,22.71-10.5,2.98-4.84,4.47-10.05,4.41-15.92-.22-22.42.02-44.85-.18-67.28-.04-4.46.92-6.39,5.83-6.12,7.29.4,14.62.24,21.92.05,3.46-.09,5.03.73,5.02,4.62-.12,38.13-.09,76.25-.04,114.38,0,2.9-.57,4.55-3.99,4.48-7.49-.17-14.99-.13-22.49-.01-2.89.05-4.09-1-3.97-3.92.15-3.54.04-7.08.04-10.63l.02-.02Z"/>
  <path class="cls-7" d="M671.41,206.05c5.17-4.42,9.48-8.9,15.35-11.69,7.32-3.48,14.99-4.28,22.92-4.07,2.38.06,3.35,1.03,3.34,3.38-.05,8.97-.04,17.94,0,26.91.01,2.84-1.07,3.13-3.84,2.77-8.46-1.11-16.68-.29-24.24,4.33-8.71,5.33-11.09,13.76-11.21,23-.24,20.18-.22,40.37.03,60.55.06,4.75-1.44,6.12-6.05,5.9-7.48-.35-14.99-.2-22.49-.05-3.17.06-4.24-1.11-4.23-4.25.07-38.31.08-76.62-.02-114.93,0-3.68,1.62-4.34,4.77-4.28,6.93.15,13.87.19,20.8-.02,3.55-.11,5.27.89,4.91,4.7-.24,2.56-.05,5.16-.05,7.75h.01Z"/>
  <path class="cls-7" d="M716.39,254.74c0-18.48.12-36.96-.09-55.44-.05-4.35,1.09-5.95,5.64-5.73,7.47.36,14.98.21,22.46.05,3.26-.07,4.68.8,4.67,4.37-.1,38.27-.1,76.54,0,114.81,0,3.67-1.61,4.34-4.76,4.28-7.67-.14-15.36-.25-23.02.04-4.14.16-4.99-1.54-4.96-5.25.14-19.04.07-38.08.07-57.12h0Z"/>
  <path class="cls-11" d="M1209.34,116.97c12.8,10.48,22.78,21.42,30.95,35.45-13.1-2.88-25.72-1.14-37.89-3.83-11.98-2.65-20.34-10.57-27.25-20.27-6.49-9.1-12.26-18.81-21.87-25.27-3.32-2.23-.87-3.66,1.19-4.79,8.57-4.75,17.66-8.3,27.39-9.49,20.84-2.54,39.53,1.78,53.72,18.52,9.44,11.14,13.43,23.94,10.82,38.49-.24,1.35.57,3.45-1.28,3.88-2.14.5-2.5-1.87-3.35-3.15-6.15-9.22-12.92-17.88-22.03-24.43-2.66-1.91-5.17-4.22-10.39-5.11h0Z"/>
  <path class="cls-7" d="M731.49,179.08c-4.23-.7-10.81,2.36-14.16-1.26-3.02-3.27-.86-9.63-.9-14.62-.12-14.4-.04-14.4,14.63-14.4,4.67,0,9.35.1,14.01-.03,2.87-.08,4.02.99,3.97,3.9-.12,7.45-.15,14.91.01,22.36.07,3.27-1.32,4.22-4.35,4.1-4.1-.16-8.22-.04-13.22-.04h0Z"/>
  <path class="cls-11" d="M1365,256.69c-2.49-2.6-5.68-1.33-8.28.28-3.22,1.99-5.36,5.17-7.85,7.96-10.69,12.02-21.3,24.11-32.15,35.99-2.54,2.78-5.76,7.24-9.32,5.84-3.02-1.19-2.53-6.57-2.87-10.28-.89-9.67-1.59-19.36-2.81-28.98-1.57-12.43-1.73-12.38,9.57-17.77,16.23-7.75,27.59-19.74,32.03-37.44,2.03-8.08-1.73-14.44-9.64-17.14-7.63-2.61-15.12-1.92-22.44,1.27-9.57,4.17-17.72,10.43-25.32,17.42-8.47,7.8-16.8,15.75-25.3,23.74-.93-1.73.08-2.85.47-3.94,10.46-29.75,21.03-59.46,31.48-89.21,4.64-13.2,10.11-26.11,13.7-39.67.89-3.34,1.26-6.61-1.93-9.22-9.89-8.11-27.61-3.93-32.36,7.73-1.62,3.97-3.21,7.97-4.63,12.01-16.45,47.03-32.88,94.06-49.22,141.13-1.1,3.17-2.75,5.45-5.46,7.43-11.17,8.18-22.08,16.73-33.3,24.84-10.63,7.69-21.56,14.96-34.71,17.79-10.59,2.28-15.56-1.38-16.66-12.14-.28-2.78-.38-5.61-.22-8.4.98-17.08,7.73-32.12,16.63-46.4,5.22-8.38,11.73-15.44,20.05-20.86,3.09-2.01,4.69-2.29,5.53,2.14,1.56,8.21-.86,15-5.9,21.33-4.09,5.14-2.85,8.87,3.39,10.96,1.76.59,3.63.99,5.47,1.15,14.22,1.23,25.73-8.99,28.4-25.15,2.37-14.29-5.51-26.42-20.03-29.67-15.79-3.53-31.08-1.03-45.1,6.78-20.81,11.6-33.73,29.88-40.89,52.11-2.47,7.67-6.1,14.23-11.07,20.38-6.81,8.42-12.57,17.71-20.76,24.99-1.07.95-2.19,2.66-3.71,1.72-.84-.52-1.12-2.31-1.21-3.56-.39-5.26.28-10.48,1.49-15.56,4.27-17.99,10.32-35.44,16.65-52.8,2.56-7.01,5.55-13.87,7.95-20.94,2.91-8.6-.04-13.14-9.05-14.68-9.33-1.59-17.15.59-22.24,9.12-1.8,3.02-3.11,4.3-5.86.69-2.65-3.47-6.47-5.85-10.74-6.82-17.52-3.98-34.84-3.45-49.09,8.51-25.7,21.57-37.32,49.99-36.06,83.26.54,14.39,10.9,23.96,25.11,25.78,14.46,1.85,24.96-4.56,33.08-15.79,6.53-9.03,12.91-18.16,20.15-28.37-.3,6.72-.88,12.04-.72,17.34.51,16.46,9.55,26.14,24.82,26.95,9.65.51,16.99-3.93,22.8-11.08,5.05-6.2,9.71-12.7,14.7-19.28,1.99,2.51,1.84,5.27,2.69,7.67,4.93,13.95,14.92,21.64,29.44,23.32,16.73,1.93,32.41-1.58,46.87-10.24,9.97-5.97,19.38-12.76,28.7-19.67,3.02-2.24,6.06-4.47,10.09-7.43-.98,3.24-1.59,5.17-2.14,7.12-1.63,5.74-3.49,11.43-4.78,17.25-.98,4.43-1.35,8.96,3.87,11.64,9.44,4.84,21.32,1.33,25.82-8.09,3.3-6.9,6.41-13.92,9.05-21.08,4.23-11.48,14.26-18.2,21.54-28.75,1.23,9.15,2.79,16.6,5.5,23.8,2.78,7.38,6.32,14.36,10.62,20.95,11.9,18.21,32.91,19.88,47.34,3.8,3.37-3.76,6.69-7.57,10.01-11.37,9.49-10.84,18.95-21.7,27.26-33.49,1.41-2,3.92-4.42,1.52-6.93h.03ZM1037.86,234.36c-11.72,12.29-18.81,27.77-28.59,41.4-6.52,9.09-12.25,18.76-21.08,26.85-3.43-6.14-1.12-11.9-.51-17.44,2.03-18.56,7.62-36.07,16.78-52.41,3.33-5.94,7.54-11.15,12.73-15.54,5.53-4.68,8.84-4.16,12.91,1.72,2.95,4.27,3.9,9.77,8.28,13.17,1.06.82.14,1.57-.52,2.26h0ZM1287.31,236.1c3.89-5.38,9.07-9.33,14.69-12.75-3.28,6.15-7.62,11.04-14.69,12.75Z"/>
  <path class="cls-7" d="M182.57,209.32c-10.93-.02-19.22-8.27-19.38-18.97-.16-10.03,8.25-18.91,19.27-18.93,11.29-.03,19.22,8.33,19.27,19.45.04,9.12-8.47,19.23-19.15,18.45h-.01Z"/>
  <path class="cls-5" d="M171.06,90.87C160.14,44.55,197.47-2.47,250.97.1c4.43.21,5.98,2.67,7.04,6.34,9.55,33.1-6.19,71.03-36.28,87.77-8.78,4.88-18.04,8.16-27.84,10.07-4.31,1.37-8.71.64-13.08.49-5.14-.34-7.46-3.32-8.03-8.24-.22-1.93-1.13-3.78-1.72-5.66h0Z"/>
  <path class="cls-16" d="M122.36,289.31c-.63.37-1.23.98-1.89,1.06-14.54,1.76-28.8,6.17-43.68,4.55-18.31-38.3-16.76-75.75,4.97-112.23,2.53-4.24,5.83-8.03,8.77-12.02,1.58-2.14,3.21-2.71,5.36-.55,17.24,17.36,34.52,34.67,51.77,52.01.22.22.19.68.42,1.56-16.35,2.51-32.93,1.59-50.2,4.13,7.75,6.01,16.08,9.33,23.47,14.16.94,4.48,4,4.92,7.74,4.08,7.33,3.4,14.61,6.92,22.01,10.14,3.7,1.61,1.4,2.83.05,4.19-9.59,9.65-19.19,19.29-28.8,28.93h0ZM94.73,223.06c2.53.21,4.26-.53,4.35-3.09.08-2.27-1.18-4.21-3.44-4s-5.03,1.53-5.37,3.87c-.43,2.98,2.76,2.6,4.45,3.22h.01ZM132.22,219.15c-.19-1.86-.92-3.45-2.94-3.23-2.55.28-5.74,1.21-6.01,3.78-.24,2.25,3.04,2.75,5.06,3.05,2.4.36,3.52-1.4,3.89-3.59h0ZM97.61,266.59c-1.79,1.18-5.39,1.09-5.38,4,0,1.69,2.85,3.25,5.1,3.24,2.36-.01,3.51-1.86,3.53-4.07.02-1.77-.83-3.16-3.25-3.17h0ZM128.14,273.06c2.58-.06,3.75-1.37,3.72-3.45-.03-1.96-1.09-3.89-3.16-3.76-2.35.15-5.09,1.83-5.2,3.91-.11,2,2.82,2.84,4.63,3.3h0ZM89.12,244.95c2.34,1.25,3.6,5.46,7.25,2.51,1.45-1.17,2.26-2.6.85-4.23-3.28-3.78-5.33.49-8.1,1.72ZM108.82,192.4c-.36-1.89-1.53-3.23-3.29-3.04-2.13.23-4.84,1.11-5.02,3.38-.2,2.47,2.73,2.52,4.51,2.73,1.96.23,3.3-1.12,3.8-3.07Z"/>
  <path class="cls-6" d="M154.52,186.99c2.16,1.49,3.27,2.44,1.58,5.8-2.15,4.27,1.66,8.46,3.07,12.64-2.04,1.34-4.08,2.67-6.12,4.01-15.95-15.78-31.88-31.6-47.88-47.33-2.86-2.81-1.7-4.67.83-6.72,17.63-14.31,37.75-22.55,60.29-24.87,14.42-1.48,28.58-.13,42.55,3.88,3.61,1.04,5.21,2.3,4.35,6.42-1.98,9.54-2.43,19.35-4.87,28.82-.88,3.43-2,5.68-5.66,1.96-15.74-16.01-39.45-7.9-45.58,8.68-.18.49-.63.88-.95,1.31-1.61-.32-2.65-3.23-4.66-1.33-2.1,1.97-.16,3.65.95,5.19.49.67,1.39,1.04,2.1,1.54h0ZM142.39,185.02c-1.43.17-2.12,1.33-1.34,2.6,2.17,3.57,4.79,6.84,7.95,9.59,1.33,1.16,2.43.32,2.78-1.17.38-1.63-7.44-10.92-9.39-11.03h0Z"/>
  <path class="cls-12" d="M175.77,292.91c-.13.13-.25.33-.4.37-10.57,2.76-17.13,10.53-23.64,18.55-6.61,8.15-14.38,15.2-22.08,22.31-1.02.94-2.56,1.57-2.62,3.31,4.21.9,11.19-1.41,24.91-7.77,8.18-3.79,15.86-8.45,23.62-12.99.08,10.1.28,20.2.19,30.3-.05,6.16-3.35,8.65-9.62,8.11-19.62-1.7-37.55-7.97-53.58-19.53-8.28-5.98-8.65-10-1.54-17.22,4.63-4.71,9.21-9.46,13.81-14.19,2.16-1.75,4.51-2.88,7.27-3.6,14.6-3.81,28.56-9.4,42.32-15.54.41.05.82.11,1.23.16.04,2.58.09,5.16.13,7.73h0Z"/>
  <path class="cls-4" d="M38.71,242.09c.03-.72.06-1.44.1-2.16,1.5-17.08,4.19-33.89,10.79-49.89,5.51-13.37,12.98-25.5,22.14-36.66,2.61-3.18,4.34-3.44,7.31-.21,7.43,8.09,7.4,7.8,1.03,16.63-26.74,37.1-31.27,77.1-15.26,119.7.7,1.86,2.07,3.53,1.68,5.72-6.09-.99-12.41-.13-18.33-2.39-6.47-16.29-8.52-33.41-9.44-50.74h-.02Z"/>
  <path class="cls-3" d="M180.81,104.77c4.37.15,8.77.89,13.08-.49,1.54,2.11,3.96,1.54,6.04,1.97,2.51.53,5.03.95,7.53,1.52,10.6,2.39,16.68,8.86,18.23,19.42-1.35.02-1.72.85-1.66,2.03-8.38-1.03-16.07-4.71-24.41-6.07-37.09-6.06-70.36,2.4-99.65,25.95-3.42,2.75-5.38,2.67-8.17-.42-8.04-8.9-10.52-6.45.98-15.27,19.5-14.96,41.39-24.28,65.81-27.45,7.35-1.36,14.81-.74,22.21-1.18h.01Z"/>
  <path class="cls-14" d="M180.81,104.77c-7.4.44-14.86-.17-22.21,1.18-14.9-19.45-30.67-38.13-49.48-53.93-10.18-8.55-9.91-16.18,1.57-23.22,8.68-5.32,18.4-3.43,25.47,5.25,8.99,11.03,15.94,23.39,22.6,35.92,3.11,5.85,6.02,11.79,9.16,17.62.7,1.31.88,3.38,3.15,3.29.59,1.88,1.5,3.73,1.72,5.66.57,4.92,2.88,7.9,8.03,8.24h-.01Z"/>
  <path class="cls-8" d="M197.51,362.89c.29,5.76-.62,11.41-1.53,17.06-40.43,5.1-76.26-5.69-107.95-31.13-3.49-2.8-3.73-4.56-.29-7.67,8.1-7.31,7.84-7.32,16.29-1.08,27.31,20.16,57.78,27.95,91.41,23.08.45-.12.9-.25,1.35-.37.22.13.46.16.72.11h0Z"/>
  <path class="cls-7" d="M199.83,183.54c2.46,7.94,1.3,16.42-5.69,21.73-6.39,4.85-13.15,5.04-20.11,1.79-7.33-3.41-10.93-10.42-10.79-18.7.05-2.83,2.94-4.28,2.36-7.05,1.43-.05,2.16-.78,2.16-2.22h0c.36-.36.72-.73,1.09-1.1l.02-.02c.36-.36.72-.73,1.09-1.09l.02-.02c.91,0,1.73-.16,2.17-1.09l.04-.02c.36-.36.72-.71,1.08-1.07l.02-.02c1.2,0,2.5.27,3.25-1.09l.09-.05c5.2-.26,10.32.43,15.45,1.14h0c.36.37.73.72,1.09,1.08l.04.04,1.07,1.07.03.03c.36.36.71.72,1.07,1.07l.03.03,1.07,1.07.03.03c.36.35.71.71,1.07,1.06l.05.05,1.04,1.04s.08.08.07.08c-.05.93.17,1.74,1.07,2.21v.02Z"/>
  <path class="cls-12" d="M198.83,352.64c-.14.49-.28.98-.42,1.47-1.81.28-3.62.6-5.44.82-8.21.99-12.49-2.68-12.62-11.12-.16-9.94-.1-19.89-.13-29.84,3.03-5.03,8.32-7.54,12.55-11.22,1.95-1.69,2.39.27,2.7,1.73,1.13,5.36,2.23,10.73,3.34,16.1-.19,1.93,0,3.82.73,5.63,0,6.54-.02,13.09-.03,19.63-1.09,2.17-.71,4.49-.66,6.78l-.02.02Z"/>
  <path class="cls-4" d="M58.89,311.92c4.57.85,9.13.21,13.7,0,2-.09,4.05-.51,5.55,1.37.83,1.21,1.72,2.37,2.47,3.63,1.65,2.78,6.14,4.64,5.2,7.91-1.2,4.16-5.72,6.47-8.71,9.66-.97,1.03-2.46,1-3.45-.13-5.78-6.61-11.51-13.27-15.11-21.42-.1-.24.23-.67.36-1.01h-.01Z"/>
  <path class="cls-13" d="M168.05,274.13c-.12.54-.09,1.43-.38,1.56-7.78,3.35-14.53,9.27-23.55,9.57,6.54-6.59,13.07-13.21,19.65-19.76,1.06-1.06,1.99-3.04,4-1.81,2.03,1.24,2.19,3.14,1.36,5.27-.65,1.65-1.85,3.21-1.08,5.17h0Z"/>
  <path class="cls-13" d="M203.4,277.44c-.2,2.53-2.35,3.19-4.11,3.98-6.46,2.89-11.82,8.11-19.17,9.1-.09-2.13-.17-4.26-.26-6.39,1.79-3.68,5.83-3.97,8.84-5.8,3.25-1.97,6.68-3.64,10.03-5.44,1.56,1.52,3.12,3.04,4.67,4.56h0Z"/>
  <path class="cls-15" d="M153.06,209.43c2.04-1.34,4.08-2.67,6.12-4.01,3.49,3.71,6.83,7.55,11.58,9.85,2.34,1.13,2.25,2.7-.33,3.76-3.65,1.5-7.05,2.71-10.04-1.52-2.08-2.95-4.86-5.4-7.33-8.07h0Z"/>
  <path class="cls-16" d="M87.14,310.65c5.03-1.04,10.06-2.07,15.09-3.11-.98,4.62-5.14,6.57-8.13,9.44-1.37,1.31-2.6-.47-3.47-1.55-1.24-1.53-2.33-3.18-3.48-4.78h0Z"/>
  <path class="cls-10" d="M154.52,186.99c-.71-.51-1.62-.87-2.1-1.54-1.12-1.54-3.05-3.22-.95-5.19,2.01-1.89,3.06,1.01,4.66,1.33.55,2.13-1.61,3.44-1.61,5.4Z"/>
  <path class="cls-7" d="M192.08,174.65c-5.12-.72-10.25-1.4-15.45-1.14,5.4-2.97,10.51-2.16,15.45,1.14Z"/>
  <path class="cls-14" d="M129.09,246.06c-3.74.84-6.8.4-7.74-4.08,2.89.78,5.44,2.18,7.74,4.08Z"/>
  <path class="cls-7" d="M208.72,190.2c-.02,1.23.25,2.56-1.16,3.29.11-1.2-.1-2.51,1.16-3.29Z"/>
  <path class="cls-7" d="M176.55,173.56c-.75,1.36-2.05,1.08-3.25,1.09.78-1.26,2.04-1.1,3.25-1.09Z"/>
  <path class="cls-7" d="M167.76,179.09c0,1.44-.73,2.18-2.16,2.22.36-1.1,1.14-1.78,2.16-2.22Z"/>
  <path class="cls-7" d="M172.15,175.76c-.44.93-1.26,1.1-2.17,1.09.46-.88,1.26-1.09,2.17-1.09Z"/>
  <path class="cls-7" d="M199.83,183.54c-.89-.48-1.11-1.28-1.07-2.21.91.47,1.05,1.31,1.07,2.21Z"/>
  <path class="cls-7" d="M209.8,188c.02.92-.17,1.74-1.08,2.2.03-.9.19-1.73,1.08-2.2Z"/>
  <path class="cls-7" d="M168.86,177.98c-.36.37-.72.73-1.09,1.1.36-.37.72-.73,1.09-1.1Z"/>
  <path class="cls-7" d="M195.39,177.95c-.36-.36-.71-.72-1.07-1.07.36.36.71.72,1.07,1.07Z"/>
  <path class="cls-7" d="M169.96,176.88c-.36.36-.72.73-1.09,1.09.36-.36.72-.73,1.09-1.09Z"/>
  <path class="cls-7" d="M194.29,176.85l-1.07-1.07,1.07,1.07Z"/>
  <path class="cls-7" d="M193.18,175.74c-.36-.36-.73-.71-1.09-1.07.36.36.73.71,1.09,1.07Z"/>
  <path class="cls-7" d="M173.27,174.67c-.36.36-.72.71-1.08,1.07.36-.36.72-.71,1.08-1.07Z"/>
  <path class="cls-7" d="M198.69,181.24l-1.04-1.04,1.04,1.04Z"/>
  <path class="cls-7" d="M197.59,180.15c-.36-.35-.71-.71-1.07-1.06.36.35.71.71,1.07,1.06Z"/>
  <path class="cls-7" d="M196.5,179.06l-1.07-1.07,1.07,1.07Z"/>
  <path class="cls-9" d="M196.79,362.77c-.45.13-.9.25-1.35.37.45-.13.9-.25,1.35-.37Z"/>
  <path class="cls-1" d="M179.87,284.12c.09,2.13.17,4.26.26,6.39-.86,1.88-2.33,2.64-4.35,2.4-.04-2.58-.09-5.16-.13-7.73.32-.36.65-.72.97-1.08,1.09,0,2.17.01,3.26.02h0Z"/>
  <path class="cls-9" d="M176.61,284.1c-.32.36-.65.72-.97,1.08-.41-.05-.82-.11-1.23-.16.27-1.42.66-2.54,2.2-.92h0Z"/>
  <path class="cls-2" d="M94.73,223.06c-1.69-.62-4.89-.25-4.45-3.22.34-2.34,3.1-3.67,5.37-3.87,2.25-.2,3.51,1.73,3.44,4-.09,2.57-1.81,3.3-4.35,3.09h-.01Z"/>
  <path class="cls-2" d="M132.22,219.15c-.37,2.19-1.49,3.95-3.89,3.59-2.02-.3-5.3-.8-5.06-3.05.27-2.57,3.46-3.5,6.01-3.78,2.02-.22,2.75,1.37,2.94,3.23h0Z"/>
  <path class="cls-2" d="M97.61,266.59c2.42.01,3.26,1.4,3.25,3.17-.02,2.21-1.16,4.05-3.53,4.07-2.25.01-5.09-1.55-5.1-3.24-.01-2.91,3.59-2.82,5.38-4h0Z"/>
  <path class="cls-2" d="M128.14,273.06c-1.81-.45-4.73-1.3-4.63-3.3.11-2.08,2.85-3.76,5.2-3.91,2.07-.13,3.13,1.8,3.16,3.76.03,2.08-1.14,3.39-3.72,3.45h-.01Z"/>
  <path class="cls-2" d="M89.12,244.95c2.77-1.22,4.81-5.49,8.1-1.72,1.42,1.63.6,3.06-.85,4.23-3.65,2.95-4.91-1.27-7.25-2.51Z"/>
  <path class="cls-2" d="M108.82,192.4c-.49,1.96-1.83,3.3-3.8,3.07-1.79-.21-4.71-.26-4.51-2.73.18-2.27,2.9-3.15,5.02-3.38,1.76-.19,2.93,1.14,3.29,3.04Z"/>
  <path class="cls-10" d="M142.39,185.02c1.96.11,9.77,9.4,9.39,11.03-.35,1.49-1.45,2.32-2.78,1.17-3.16-2.75-5.78-6.02-7.95-9.59-.78-1.28-.09-2.43,1.34-2.6h0Z"/>
  <g>
    <path class="cls-7" d="M230.74,259.28c-.65-.14-1.72.55-2.27,1.16-3.7,4.14-8.39,7.08-12.78,10.33-3.73,2.77-7.05,6.59-12.29,6.66-.2,2.53-2.35,3.19-4.11,3.98-6.46,2.89-11.82,8.11-19.17,9.1-.86,1.88-2.33,2.64-4.35,2.4-.13.13-.25.33-.4.37-10.57,2.76-17.13,10.53-23.64,18.55-6.61,8.15-14.38,15.2-22.08,22.31-1.02.94-2.56,1.57-2.62,3.31,4.21.9,11.19-1.41,24.91-7.77,8.18-3.79,15.86-8.45,23.62-12.99,1.35-1.24,2.42-2.97,4.65-2.7,3.03-5.02,8.32-7.54,12.55-11.22,1.95-1.69,2.39.27,2.7,1.73,1.12,5.33,1.44,69.79.53,75.44,1.95.49,3.09-.44,3.92-2.12,7.46-15.08,15.02-30.1,19.82-46.34,4.51-15.27,6.46-31.06,9.6-46.6,1.5-7.46,3.01-15.07,2.48-22.82-.07-1.05.29-2.47-1.06-2.77h0Z"/>
    <path class="cls-7" d="M245.74,219.72c-1.01-.31-7.82,10.46-10.62,12.79-.02-5.58.09-11.08.14-16.53.02-1.21.03-2.43.03-3.64.02-6.04-.09-12.03-.59-17.96-.33-7.18-.77-14.36-1.62-21.51-.02-.13-.03-.26-.05-.39-.11-1.62-.28-3.24-.56-4.85-.63-5.5-1.25-11-2.15-16.45-1.05-6.37-2-12.75-3.15-19.1,0-.05-.02-.09-.02-.14.47-1.5.3-2.86-.66-3.98-.12-.81-.25-1.63-.35-2.45-.07-.59-.27-1.35-1.1-1.28-.74.06-.96.72-1.07,1.36-.06.34-.05.69-.09,1.04-.52,4.46-.95,8.93-1.53,13.38-1.67,10.15-3.57,20.25-5.97,30.27.09.08.17.17.24.25-2.62,10.78-5.76,21.32-11.3,31.07-5.54,9.76-13.38,17.02-23.31,21.92-11.16,5.51-23.25,7.55-35.55,7.91-8.87.26-17.77.09-26.6-1.07-1.71.18-3.41.34-5.13.47-.05,0-.1,0-.15,0-.01.04-.03.08-.04.12-.23,1.07.98,1.45,1.8,1.7,6.22,1.84,12.27,4.13,18.29,6.52,0,.02-.02.05-.03.08,5.69,2.41,11.42,4.75,17.06,7.28,4.24,1.9,8.76,3.2,13.08,4.93,2.73,1.28,5.42,2.67,8.04,4.2,1.1.77,2.16,1.63,3.16,2.6.45.61.83,1.28,1.14,2.03,1.17,2.86,1,5.75.5,8.67-.72.96-1.7,1.83-2.96,2.55-2.11,1.2-4.28,2-6.57,2.63-.12.54-.09,1.43-.38,1.56-7.78,3.35-14.53,9.27-23.55,9.57-4.57,1.86-9.36,2.85-14.22,3.54-2.49.36-4.87,2.71-7.54.52-.63.37-1.23.98-1.89,1.06-14.54,1.76-28.8,6.17-43.68,4.55-3.43.1-6.87.2-10.3.3-6.09-.99-12.41-.13-18.33-2.39-7.64-.69-14.61-3.38-20.46-8.2-8.6-7.09-9.27-17.63-1.98-28.59,3.54-5.32,7.73-10.17,12.99-13.95.03-.72.06-1.44.1-2.16-2.13.08-3.76,1.27-5.44,2.41-6.69,4.54-12.62,9.99-18.59,15.39-3.99,3.6-7.09,7.95-9.9,12.45-9.05,14.5-5.34,26.7,9.79,34.65,14.03,7.37,29,7.75,44.22,7.1,4.57.85,9.13.21,13.7,0,2-.09,4.05-.51,5.55,1.37,1.81-4.98,6.03-1.66,9-2.63,5.03-1.04,10.06-2.07,15.09-3.11,6.9-.43,13.42-2.6,19.98-4.53,1.4-.41,2.44-.88,2.61,1.14,2.16-1.75,4.51-2.88,7.27-3.6,14.6-3.81,28.56-9.4,42.32-15.54.27-1.42.66-2.54,2.2-.92,1.09,0,2.17.01,3.26.02.72-1.48,1.81-2.41,3.04-3.11.51-.25,1.01-.5,1.52-.75,1.44-.63,2.96-1.13,4.28-1.94,3.25-1.97,6.68-3.64,10.03-5.44.08-.13.16-.28.23-.43,2.86-1.63,5.69-3.32,8.47-5.08,6.91-3.73,13.34-8.07,19.16-13.2,2.12-1.72,4.12-3.59,5.9-5.72,2.35-2.5,4.58-5.15,6.67-7.98,3.04-4.13,5.68-8.62,6.87-13.68.19-.8.46-1.88.44-2.84.11-.64.2-1.29.26-1.95.09-.96.07-1.93-.99-2.25v-.07Z"/>
  </g>
</svg>