<?xml version="1.0" encoding="UTF-8"?>
<svg id="Layer_1" xmlns="http://www.w3.org/2000/svg" viewBox="0 0 380 380">
  <defs>
    <style>
      .cls-1 {
        fill: #fbfcfb;
      }

      .cls-2 {
        fill: #453138;
      }

      .cls-3 {
        fill: #e8455f;
      }

      .cls-4 {
        fill: #29974f;
      }

      .cls-5 {
        fill: #7ebc47;
      }

      .cls-6 {
        fill: #7dbb48;
      }

      .cls-7 {
        fill: #122215;
      }

      .cls-8 {
        fill: #d2c13f;
      }

      .cls-9 {
        fill: #f2ece3;
      }

      .cls-10 {
        fill: #f2ece1;
      }

      .cls-11 {
        fill: #363e2c;
      }

      .cls-12 {
        fill: #e7d23e;
      }

      .cls-13 {
        fill: #e8d344;
      }

      .cls-14 {
        fill: #754f31;
      }

      .cls-15 {
        fill: #d1c348;
      }

      .cls-16 {
        fill: #e52b7c;
      }
    </style>
  </defs>
  <rect class="cls-7" width="380" height="380"/>
  <g>
    <path class="cls-9" d="M214.1,205.03c-10.08-.02-17.72-7.63-17.87-17.49-.14-9.25,7.61-17.44,17.77-17.46,10.41-.02,17.73,7.68,17.77,17.94.03,8.41-7.81,17.73-17.66,17.01Z"/>
    <path class="cls-5" d="M203.48,95.79c-10.06-42.71,24.35-86.08,73.69-83.7,4.08.2,5.52,2.46,6.49,5.85,8.8,30.53-5.71,65.5-33.46,80.94-8.09,4.5-16.63,7.53-25.67,9.28-3.98,1.27-8.03.59-12.06.45-4.74-.31-6.88-3.06-7.4-7.6-.21-1.78-1.04-3.48-1.59-5.22Z"/>
    <path class="cls-16" d="M158.58,278.8c-.58.34-1.13.9-1.74.98-13.4,1.62-26.56,5.69-40.28,4.19-16.88-35.32-15.45-69.85,4.58-103.5,2.33-3.91,5.37-7.4,8.09-11.09,1.46-1.98,2.96-2.5,4.94-.5,15.9,16.01,31.83,31.97,47.74,47.96.2.2.18.63.39,1.44-15.07,2.31-30.37,1.47-46.3,3.81,7.15,5.55,14.83,8.61,21.64,13.06.87,4.13,3.69,4.54,7.14,3.76,6.76,3.13,13.47,6.38,20.3,9.35,3.41,1.48,1.29,2.61.05,3.86-8.84,8.9-17.7,17.79-26.55,26.68ZM133.1,217.7c2.34.19,3.93-.49,4.01-2.85.07-2.1-1.09-3.88-3.17-3.69-2.09.19-4.63,1.41-4.95,3.57-.4,2.75,2.55,2.4,4.11,2.97ZM167.67,214.09c-.17-1.71-.85-3.18-2.71-2.98-2.36.25-5.29,1.11-5.54,3.48-.22,2.07,2.8,2.53,4.67,2.81,2.21.33,3.24-1.29,3.59-3.31ZM135.75,257.84c-1.65,1.09-4.97,1-4.96,3.69,0,1.56,2.63,3,4.7,2.99,2.18-.01,3.23-1.71,3.25-3.75.02-1.63-.76-2.92-2.99-2.93ZM163.9,263.81c2.38-.06,3.46-1.26,3.43-3.18-.03-1.81-1-3.59-2.91-3.47-2.17.14-4.69,1.69-4.79,3.61-.1,1.84,2.6,2.62,4.27,3.04ZM127.92,237.89c2.16,1.15,3.32,5.04,6.69,2.32,1.34-1.08,2.09-2.4.78-3.9-3.03-3.48-4.92.45-7.47,1.58ZM146.09,189.43c-.34-1.75-1.41-2.98-3.03-2.8-1.96.22-4.46,1.02-4.63,3.12-.18,2.28,2.52,2.32,4.16,2.52,1.81.21,3.05-1.03,3.5-2.83Z"/>
    <path class="cls-6" d="M188.23,184.44c1.99,1.37,3.01,2.25,1.46,5.35-1.98,3.94,1.53,7.8,2.84,11.65-1.88,1.23-3.76,2.47-5.64,3.7-14.71-14.56-29.4-29.14-44.16-43.64-2.64-2.59-1.57-4.3.76-6.19,16.26-13.2,34.82-20.8,55.6-22.93,13.3-1.37,26.36-.12,39.23,3.58,3.33.96,4.8,2.13,4.01,5.92-1.83,8.8-2.24,17.85-4.49,26.58-.82,3.17-1.85,5.24-5.22,1.81-14.52-14.76-36.38-7.28-42.03,8-.17.45-.58.81-.87,1.21-1.48-.3-2.44-2.98-4.3-1.23-1.93,1.82-.15,3.36.88,4.79.45.62,1.28.96,1.94,1.42ZM177.05,182.62c-1.31.16-1.95,1.22-1.24,2.4,2,3.29,4.42,6.31,7.33,8.84,1.23,1.07,2.24.3,2.57-1.08.35-1.5-6.86-10.07-8.66-10.17Z"/>
    <path class="cls-12" d="M207.83,282.12c-.12.12-.23.3-.37.34-9.75,2.54-15.8,9.71-21.8,17.11-6.09,7.51-13.26,14.02-20.36,20.57-.94.87-2.36,1.44-2.42,3.05,3.88.83,10.32-1.3,22.97-7.16,7.55-3.5,14.62-7.8,21.78-11.97.07,9.31.26,18.63.18,27.94-.05,5.68-3.09,7.98-8.87,7.48-18.09-1.57-34.63-7.35-49.41-18.01-7.64-5.51-7.97-9.22-1.42-15.88,4.27-4.34,8.49-8.72,12.74-13.08,1.99-1.61,4.16-2.66,6.71-3.32,13.46-3.51,26.34-8.67,39.02-14.33.38.05.75.1,1.13.15.04,2.38.08,4.75.12,7.13Z"/>
    <path class="cls-4" d="M81.44,235.25c.03-.67.06-1.33.09-2,1.39-15.75,3.87-31.26,9.95-46.01,5.08-12.33,11.97-23.52,20.42-33.81,2.41-2.93,4.01-3.17,6.74-.19,6.85,7.46,6.82,7.2.95,15.34-24.66,34.21-28.83,71.1-14.08,110.39.64,1.72,1.91,3.26,1.55,5.27-5.61-.91-11.45-.12-16.91-2.21-5.97-15.02-7.86-30.81-8.71-46.79Z"/>
    <path class="cls-3" d="M212.47,108.61c4.03.14,8.08.82,12.06-.45,1.42,1.95,3.65,1.42,5.57,1.82,2.31.49,4.64.88,6.95,1.4q14.66,3.3,16.81,17.91c-1.25.02-1.58.79-1.53,1.87-7.72-.95-14.82-4.34-22.51-5.6-34.21-5.59-64.88,2.21-91.9,23.93-3.15,2.53-4.96,2.46-7.53-.39-7.42-8.21-9.7-5.95.91-14.09,17.98-13.8,38.17-22.39,60.69-25.31,6.78-1.25,13.66-.68,20.48-1.09Z"/>
    <path class="cls-14" d="M212.47,108.61c-6.83.41-13.7-.16-20.48,1.09-13.74-17.94-28.29-35.16-45.63-49.73-9.39-7.88-9.14-14.92,1.45-21.41,8-4.91,16.96-3.16,23.49,4.84,8.29,10.17,14.7,21.57,20.84,33.12,2.86,5.39,5.55,10.87,8.45,16.25.65,1.21.81,3.12,2.91,3.03.55,1.74,1.38,3.44,1.59,5.22.53,4.54,2.66,7.29,7.4,7.6Z"/>
    <path class="cls-8" d="M227.88,346.65c.27,5.31-.57,10.52-1.41,15.73-37.28,4.7-70.33-5.25-99.54-28.7-3.22-2.58-3.44-4.21-.27-7.07,7.47-6.74,7.23-6.75,15.02-1,25.18,18.59,53.28,25.77,84.3,21.28.41-.11.83-.23,1.24-.35.21.12.43.15.66.11Z"/>
    <path class="cls-9" d="M230.01,181.26c2.27,7.32,1.2,15.14-5.25,20.04-5.89,4.48-12.12,4.64-18.54,1.65-6.76-3.15-10.08-9.61-9.95-17.25.04-2.61,2.71-3.95,2.18-6.51,1.32-.04,1.99-.72,1.99-2.05,0,0,.01,0,.01,0,.33-.34.67-.67,1-1.01,0,0,.02-.02.02-.02.33-.33.67-.67,1-1,0,0,.02-.02.02-.02.84,0,1.6-.15,2-1.01,0,0,.04-.02.04-.02.33-.33.66-.66,1-.99,0,0,.02-.02.02-.02,1.11,0,2.31.25,3-1,0,0,.08-.04.08-.04,4.79-.24,9.52.39,14.24,1.06,0,0,0,.01,0,.01.34.33.67.66,1.01.99,0,0,.04.04.04.04.33.33.66.66.98.99,0,0,.03.03.03.03.33.33.66.66.99.99,0,0,.03.03.03.03.33.33.66.66.99.99,0,0,.03.03.03.03.33.33.66.65.98.98,0,0,.05.05.05.05.32.32.64.64.96.96,0,0,.07.08.07.08-.05.86.16,1.6.98,2.04Z"/>
    <path class="cls-12" d="M229.09,337.2c-.13.45-.26.91-.39,1.36-1.67.25-3.34.56-5.02.76-7.58.91-11.52-2.47-11.64-10.25-.15-9.17-.09-18.34-.12-27.52,2.79-4.63,7.67-6.95,11.57-10.34,1.8-1.56,2.2.25,2.49,1.6,1.04,4.95,2.05,9.9,3.08,14.85-.18,1.78,0,3.52.67,5.19,0,6.04-.02,12.07-.03,18.11-1,2.01-.66,4.14-.61,6.25Z"/>
    <path class="cls-4" d="M100.04,299.65c4.21.78,8.42.19,12.63,0,1.85-.09,3.73-.47,5.12,1.26.76,1.11,1.59,2.19,2.27,3.35,1.52,2.57,5.67,4.28,4.79,7.29-1.11,3.84-5.28,5.97-8.04,8.91-.89.95-2.27.92-3.18-.12-5.33-6.1-10.62-12.23-13.93-19.76-.1-.22.21-.62.33-.93Z"/>
    <path class="cls-13" d="M200.71,264.8c-.11.49-.08,1.32-.35,1.43-7.18,3.09-13.4,8.55-21.71,8.82,6.03-6.08,12.05-12.18,18.12-18.22.98-.98,1.83-2.8,3.69-1.67,1.87,1.15,2.02,2.9,1.25,4.86-.6,1.52-1.7,2.96-1,4.77Z"/>
    <path class="cls-13" d="M233.31,267.85c-.19,2.33-2.17,2.95-3.79,3.67-5.96,2.66-10.9,7.48-17.68,8.39-.08-1.96-.16-3.93-.24-5.89,1.65-3.39,5.38-3.66,8.15-5.35,2.99-1.82,6.16-3.36,9.25-5.02,1.44,1.4,2.87,2.8,4.31,4.21Z"/>
    <path class="cls-15" d="M186.88,205.13c1.88-1.23,3.76-2.46,5.64-3.7,3.22,3.42,6.29,6.96,10.68,9.08,2.15,1.04,2.07,2.49-.3,3.47-3.37,1.39-6.5,2.5-9.26-1.4-1.92-2.72-4.48-4.98-6.76-7.44Z"/>
    <path class="cls-16" d="M126.09,298.48c4.64-.96,9.28-1.91,13.91-2.87-.9,4.26-4.74,6.06-7.5,8.7-1.26,1.21-2.4-.43-3.2-1.43-1.14-1.41-2.15-2.93-3.21-4.41Z"/>
    <path class="cls-11" d="M188.23,184.44c-.66-.47-1.49-.81-1.94-1.42-1.03-1.42-2.81-2.97-.88-4.79,1.86-1.75,2.82.93,4.3,1.23.5,1.96-1.48,3.17-1.48,4.98Z"/>
    <path class="cls-10" d="M222.87,173.06c-4.73-.66-9.45-1.29-14.24-1.06,4.98-2.74,9.7-1.99,14.24,1.06Z"/>
    <path class="cls-14" d="M164.78,238.91c-3.45.78-6.27.37-7.14-3.76,2.66.72,5.02,2.01,7.14,3.76Z"/>
    <path class="cls-10" d="M208.54,172.05c-.69,1.25-1.89.99-3,1,.72-1.17,1.88-1.01,3-1Z"/>
    <path class="cls-10" d="M200.44,177.15c0,1.33-.67,2.01-1.99,2.05.33-1.01,1.05-1.64,1.99-2.05Z"/>
    <path class="cls-10" d="M204.49,174.08c-.41.86-1.16,1.02-2,1.01.43-.81,1.17-1.01,2-1.01Z"/>
    <path class="cls-10" d="M230.01,181.26c-.82-.44-1.03-1.18-.98-2.04.84.43.97,1.21.98,2.04Z"/>
    <path class="cls-10" d="M201.45,176.13c-.33.34-.67.67-1,1.01.33-.34.67-.67,1-1.01Z"/>
    <path class="cls-10" d="M225.92,176.11c-.33-.33-.66-.66-.99-.99.33.33.66.66.99.99Z"/>
    <path class="cls-10" d="M202.47,175.11c-.33.33-.67.67-1,1,.33-.33.67-.67,1-1Z"/>
    <path class="cls-10" d="M224.9,175.08c-.33-.33-.66-.66-.98-.99.33.33.66.66.98.99Z"/>
    <path class="cls-10" d="M223.88,174.06c-.34-.33-.67-.66-1.01-.99.34.33.67.66,1.01.99Z"/>
    <path class="cls-10" d="M205.52,173.07c-.33.33-.66.66-1,.99.33-.33.66-.66,1-.99Z"/>
    <path class="cls-10" d="M228.96,179.14c-.32-.32-.64-.64-.96-.96.32.32.64.64.96.96Z"/>
    <path class="cls-10" d="M227.95,178.13c-.33-.33-.66-.65-.98-.98.33.33.66.65.98.98Z"/>
    <path class="cls-10" d="M226.94,177.12c-.33-.33-.66-.66-.99-.99.33.33.66.66.99.99Z"/>
    <path class="cls-10" d="M227.21,346.54c-.41.12-.83.23-1.24.35.41-.12.83-.23,1.24-.35Z"/>
    <path class="cls-1" d="M211.6,274.01c.08,1.96.16,3.93.24,5.89-.79,1.73-2.15,2.43-4.01,2.21-.04-2.38-.08-4.75-.12-7.13.3-.33.6-.66.89-.99,1,0,2,.01,3,.02Z"/>
    <path class="cls-10" d="M208.6,273.99c-.3.33-.6.66-.89.99-.38-.05-.75-.1-1.13-.15.25-1.31.61-2.34,2.03-.85Z"/>
    <path class="cls-2" d="M133.1,217.7c-1.56-.57-4.51-.23-4.11-2.97.31-2.16,2.86-3.38,4.95-3.57,2.08-.19,3.24,1.6,3.17,3.69-.08,2.37-1.67,3.04-4.01,2.85Z"/>
    <path class="cls-2" d="M167.67,214.09c-.34,2.02-1.37,3.64-3.59,3.31-1.87-.28-4.89-.74-4.67-2.81.25-2.37,3.19-3.23,5.54-3.48,1.87-.2,2.54,1.27,2.71,2.98Z"/>
    <path class="cls-2" d="M135.75,257.84c2.23.01,3.01,1.29,2.99,2.93-.02,2.04-1.07,3.74-3.25,3.75-2.07.01-4.7-1.43-4.7-2.99-.01-2.69,3.31-2.6,4.96-3.69Z"/>
    <path class="cls-2" d="M163.9,263.81c-1.67-.42-4.37-1.2-4.27-3.04.1-1.92,2.62-3.47,4.79-3.61,1.91-.12,2.88,1.66,2.91,3.47.03,1.92-1.05,3.12-3.43,3.18Z"/>
    <path class="cls-2" d="M127.92,237.89c2.55-1.13,4.44-5.07,7.47-1.58,1.31,1.5.56,2.82-.78,3.9-3.36,2.72-4.53-1.17-6.69-2.32Z"/>
    <path class="cls-2" d="M146.09,189.43c-.46,1.8-1.69,3.05-3.5,2.83-1.65-.19-4.35-.24-4.16-2.52.17-2.09,2.67-2.9,4.63-3.12,1.62-.18,2.7,1.06,3.03,2.8Z"/>
    <path class="cls-11" d="M177.05,182.62c1.8.1,9.01,8.67,8.66,10.17-.32,1.38-1.34,2.14-2.57,1.08-2.91-2.53-5.33-5.56-7.33-8.84-.72-1.18-.08-2.24,1.24-2.4Z"/>
    <g>
      <path class="cls-9" d="M258.52,251.11c-.6-.13-1.59.5-2.09,1.07-3.41,3.82-7.73,6.53-11.78,9.53-3.44,2.55-6.5,6.07-11.34,6.14-.19,2.33-2.17,2.95-3.79,3.67-5.96,2.66-10.9,7.48-17.68,8.39-.79,1.73-2.15,2.43-4.01,2.21-.12.12-.23.3-.37.34-9.75,2.54-15.8,9.71-21.8,17.11-6.09,7.51-13.26,14.02-20.36,20.57-.94.87-2.36,1.44-2.42,3.05,3.88.83,10.32-1.3,22.97-7.16,7.55-3.5,14.62-7.8,21.78-11.97,1.25-1.15,2.23-2.74,4.28-2.49,2.79-4.63,7.67-6.95,11.57-10.34,1.8-1.56,2.2.25,2.49,1.6,1.04,4.91,1.32,64.36.49,69.57,1.8.45,2.85-.4,3.62-1.96,6.88-13.91,13.85-27.75,18.28-42.73,4.16-14.09,5.96-28.64,8.85-42.98,1.39-6.88,2.78-13.9,2.29-21.05-.07-.97.27-2.28-.98-2.55Z"/>
      <path class="cls-9" d="M272.35,214.63c-.93-.28-7.21,9.64-9.8,11.79-.02-5.14.08-10.22.13-15.24.02-1.12.03-2.24.02-3.36.02-5.57-.08-11.09-.54-16.57-.31-6.62-.71-13.25-1.5-19.84-.01-.12-.03-.24-.04-.36-.1-1.5-.25-2.99-.52-4.47-.58-5.07-1.15-10.14-1.98-15.17-.97-5.87-1.84-11.76-2.91-17.62,0-.04-.01-.09-.02-.13.43-1.38.27-2.63-.61-3.67-.11-.75-.23-1.5-.32-2.26-.07-.55-.25-1.24-1.01-1.18-.68.05-.88.67-.99,1.25-.06.31-.05.64-.09.96-.48,4.11-.88,8.24-1.42,12.34-1.54,9.36-3.3,18.68-5.5,27.91.08.08.15.16.22.23-2.42,9.94-5.31,19.66-10.42,28.66-5.11,9-12.34,15.69-21.5,20.22-10.29,5.08-21.44,6.96-32.79,7.29-8.18.24-16.39.08-24.53-.99-1.57.17-3.15.32-4.73.43-.05,0-.09,0-.14,0-.01.04-.02.07-.03.11-.21.98.9,1.34,1.66,1.56,5.73,1.7,11.32,3.81,16.86,6.01-.01.02-.02.05-.03.07,5.25,2.22,10.53,4.38,15.73,6.72,3.91,1.76,8.08,2.95,12.06,4.54,2.52,1.18,5,2.46,7.42,3.87,1.01.71,1.99,1.5,2.92,2.4.42.56.77,1.18,1.05,1.87,1.08,2.63.92,5.31.46,8-.66.89-1.57,1.69-2.73,2.35-1.95,1.11-3.95,1.84-6.06,2.42-.11.49-.08,1.32-.35,1.43-7.18,3.09-13.4,8.55-21.71,8.82-4.21,1.72-8.63,2.62-13.11,3.26-2.3.33-4.49,2.5-6.95.48-.58.34-1.13.9-1.74.98-13.4,1.62-26.56,5.69-40.28,4.19-3.17.09-6.33.19-9.5.28-5.61-.91-11.45-.12-16.91-2.21-7.04-.64-13.47-3.11-18.87-7.56-7.93-6.54-8.54-16.26-1.82-26.36,3.26-4.9,7.13-9.38,11.98-12.86.03-.67.06-1.33.09-2-1.97.07-3.47,1.17-5.02,2.22-6.17,4.18-11.64,9.21-17.15,14.19-3.68,3.32-6.54,7.34-9.13,11.48-8.34,13.37-4.92,24.62,9.03,31.95,12.94,6.79,26.74,7.15,40.78,6.55,4.21.78,8.42.19,12.63,0,1.85-.09,3.73-.47,5.12,1.26,1.67-4.59,5.56-1.53,8.3-2.43,4.64-.96,9.28-1.91,13.91-2.87,6.37-.39,12.38-2.4,18.43-4.17,1.3-.38,2.25-.81,2.41,1.06,1.99-1.61,4.16-2.66,6.71-3.32,13.46-3.51,26.34-8.67,39.02-14.33.25-1.31.61-2.34,2.03-.85,1,0,2,.01,3,.02.66-1.36,1.67-2.22,2.8-2.87.47-.23.93-.46,1.4-.69,1.33-.58,2.73-1.05,3.94-1.79,2.99-1.82,6.16-3.36,9.25-5.02.08-.12.14-.26.21-.4,2.64-1.51,5.24-3.07,7.81-4.69,6.37-3.44,12.3-7.45,17.67-12.18,1.96-1.59,3.8-3.31,5.44-5.27,2.17-2.3,4.23-4.75,6.15-7.36,2.8-3.81,5.24-7.95,6.33-12.62.17-.74.43-1.73.4-2.62.1-.59.18-1.19.24-1.8.09-.89.07-1.78-.91-2.08Z"/>
    </g>
  </g>
</svg>